<?xml version="1.0" encoding="UTF-8" standalone="no"?>
<!-- Created with Inkscape (http://www.inkscape.org/) -->

<svg
   width="128"
   height="128"
   version="1.1"
   viewBox="0 0 128.00001 128"
   id="svg3"
   sodipodi:docname="CAN_MQTT_BRIDGE.svg"
   xml:space="preserve"
   inkscape:version="1.4.2 (f4327f4, 2025-05-13)"
   inkscape:export-filename="..\GitHub\HA_CAN_MQTT_BRIDGE\icon.png"
   inkscape:export-xdpi="192"
   inkscape:export-ydpi="192"
   xmlns:inkscape="http://www.inkscape.org/namespaces/inkscape"
   xmlns:sodipodi="http://sodipodi.sourceforge.net/DTD/sodipodi-0.dtd"
   xmlns="http://www.w3.org/2000/svg"
   xmlns:svg="http://www.w3.org/2000/svg"><defs
     id="defs3" /><sodipodi:namedview
     id="namedview3"
     pagecolor="#ffffff"
     bordercolor="#000000"
     borderopacity="0.25"
     inkscape:showpageshadow="2"
     inkscape:pageopacity="0.0"
     inkscape:pagecheckerboard="0"
     inkscape:deskcolor="#d1d1d1"
     inkscape:zoom="4"
     inkscape:cx="8.25"
     inkscape:cy="39.75"
     inkscape:window-width="3440"
     inkscape:window-height="1369"
     inkscape:window-x="-8"
     inkscape:window-y="-8"
     inkscape:window-maximized="1"
     inkscape:current-layer="svg3"
     showguides="true"
     showgrid="false"><sodipodi:guide
       position="-74.250003,134.12501"
       orientation="1,0"
       id="guide7"
       inkscape:locked="false" /><sodipodi:guide
       position="-105.5,133.62501"
       orientation="1,0"
       id="guide8"
       inkscape:locked="false" /></sodipodi:namedview><g
     id="g3"
     transform="matrix(0.4375232,0,0,0.4375232,-15.563228,-27.063651)"
     inkscape:label="CAN"><path
       d="M 115,102 V 68 H 96 c -29,0 -57.123,20.671 -57,57 0.1264,37.323 32.891,57 57,57 h 19 V 148 H 97 c -12,0 -19,-13.056 -19,-23 0,-9.944 7,-23 19,-23 z"
       fill="#05734e"
       id="path1" /><path
       d="m 126,182 0.78575,-74.859 c 0.28452,-27.106 23.335,-40.531 43.214,-41.141 19.104,-0.58621 43.878,13.488 43.874,36.915 L 213.99942,182 h -35 l 0.14189,-34.989 -11.142,-0.0113 v -30 h 11 v -10 c 0,-6 -3.9861,-9 -8,-9 -4.0139,0 -8,3 -8,9 v 75 z"
       fill="#05734e"
       id="path2" /><path
       d="m 230,182 h 37 l -0.48551,-46.395 20.566,40.081 c 3.6502,7.1138 13.323,9.7748 20.506,8.1763 8.1383,-1.8111 17.166,-5.942 17.112,-18.242 l -0.42622,-97.967 -35.413,0.22648 0.21644,47.345 -18.434,-36.753 c -4.8253,-9.6208 -13.714,-13.89 -22.296,-13.093 -7.6008,0.7057 -17.232,7.3654 -17.275,15.034 z"
       fill="#04744e"
       id="path3" /></g><g
     style="overflow:visible"
     id="g4"
     transform="matrix(0.16492941,0,0,0.16492941,-46.972754,83.839609)"
     inkscape:label="MQTT"><path
       d="m 399.6,142.5 c 1.7,3.7 3.3,7.5 4.8,11.4 a 149.3,149.3 0 0 1 4.9,-11.6 c 1.7,-3.7 3.5,-7.4 5.3,-10.9 L 465,32 c 0.9,-1.7 1.8,-3 2.8,-4 0.9,-0.9 2,-1.6 3.2,-2.1 1.2,-0.5 2.5,-0.7 4,-0.7 h 40 V 221.8 H 474.8 V 108.6 c 0,-5.5 0.3,-11.4 0.8,-17.8 l -52.1,101.1 c -1.6,3.2 -3.8,5.5 -6.5,7.2 -2.7,1.6 -5.9,2.4 -9.4,2.4 h -6.2 c -3.5,0 -6.6,-0.8 -9.4,-2.4 -2.7,-1.6 -4.9,-4 -6.5,-7.2 L 333,90.7 c 0.4,3.2 0.6,6.3 0.8,9.4 0.2,3.1 0.3,6 0.3,8.6 V 221.8 H 293.9 V 25.2 h 40 c 1.5,0 2.8,0.2 4,0.7 1.2,0.5 2.2,1.1 3.2,2.1 0.9,0.9 1.9,2.3 2.8,4 l 50.6,99.9 c 1.7,3.4 3.5,6.9 5.1,10.6 z m 331.1,-19.1 c 0,8.5 -0.9,16.6 -2.6,24.4 -1.8,7.8 -4.3,15.1 -7.6,21.9 -3.3,6.8 -7.3,13.2 -12.2,19 -4.8,5.9 -10.3,11 -16.4,15.5 l 49.8,54.4 h -37.5 c -5.4,0 -10.3,-0.7 -14.7,-2 -4.4,-1.3 -8.3,-3.9 -11.7,-7.9 l -24.4,-27.4 c -4,0.8 -8,1.4 -12.1,1.9 -4.1,0.4 -8.3,0.7 -12.6,0.7 -15.3,0 -29.3,-2.6 -41.9,-7.7 -12.6,-5.1 -23.4,-12.2 -32.3,-21.3 -9,-9 -15.9,-19.7 -20.8,-31.9 -4.9,-12.2 -7.4,-25.5 -7.4,-39.7 0,-14.2 2.5,-27.4 7.4,-39.7 4.9,-12.2 11.8,-22.9 20.8,-31.9 9,-9 19.7,-16.1 32.3,-21.2 12.6,-5.1 26.5,-7.7 41.9,-7.7 15.3,0 29.2,2.6 41.8,7.8 12.6,5.2 23.3,12.3 32.2,21.3 8.9,9 15.8,19.6 20.7,31.9 4.9,12.2 7.3,25.4 7.3,39.6 z m -46.7,0 c 0,-9.7 -1.3,-18.5 -3.8,-26.3 -2.5,-7.8 -6.1,-14.4 -10.9,-19.8 -4.7,-5.4 -10.5,-9.5 -17.3,-12.4 -6.8,-2.9 -14.6,-4.3 -23.4,-4.3 -8.8,0 -16.7,1.4 -23.6,4.3 -6.9,2.9 -12.7,7 -17.4,12.4 -4.7,5.4 -8.3,12 -10.9,19.8 -2.5,7.8 -3.8,16.5 -3.8,26.3 0,9.8 1.3,18.6 3.8,26.4 2.5,7.8 6.1,14.4 10.9,19.8 4.7,5.4 10.5,9.5 17.4,12.4 6.9,2.8 14.7,4.3 23.6,4.3 8.7,0 16.5,-1.4 23.4,-4.3 6.8,-2.8 12.6,-7 17.3,-12.4 4.7,-5.4 8.3,-12 10.9,-19.8 2.6,-7.8 3.8,-16.6 3.8,-26.4 z M 877.2,25.1 V 61.3 H 823.9 V 221.8 H 778.3 V 61.3 H 725 V 25.1 Z m 174.6,0 V 61.3 H 996.5 V 221.8 H 950.9 V 61.3 H 897.6 V 25.1 Z"
       fill="#660066"
       id="path1-8" /></g><path
     id="path1-4"
     d="m 85.18054,56 c -2.08882,0 -3.78945,1.700633 -3.78945,3.789454 0,1.491751 0.8688,2.78213 2.12579,3.399533 V 84.60937 l -5.847011,-5.846649 c 0.133092,-0.38634 0.209041,-0.798631 0.209041,-1.229334 0,-2.088822 -1.700632,-3.789455 -3.789453,-3.789455 -2.088822,0 -3.789457,1.700633 -3.789457,3.789455 0,2.088821 1.700635,3.789454 3.789457,3.789454 0.428853,0 0.840829,-0.07595 1.227165,-0.209041 l 7.510678,7.510673 h 4.0169 v -5.706566 l 8.11686,-8.116855 c 0.40852,0.151577 0.84844,0.238645 1.31057,0.238645 2.08882,0 3.78945,-1.700633 3.78945,-3.789454 0,-2.088821 -1.70063,-3.789454 -3.78945,-3.789454 -2.08882,0 -3.78945,1.700633 -3.78945,3.789454 0,0.399279 0.0626,0.783626 0.17726,1.145934 l -5.81524,5.8156 V 63.188987 C 88.10119,62.571584 88.97,61.281205 88.97,59.789454 88.97,57.700633 87.26936,56 85.18054,56 Z"
     style="fill:#660066;fill-opacity:1;stroke-width:0.184851"
     sodipodi:nodetypes="sscccsssscccccsssscccss"
     inkscape:transform-center-x="-8.0433402"
     inkscape:transform-center-y="0.30935924" /><path
     id="path1-4-1"
     d="m 47.425539,84.624475 c 2.088821,0 3.789456,-1.700635 3.789456,-3.789457 0,-1.49175 -0.868804,-2.782128 -2.125791,-3.39953 V 56.015104 l 5.847008,5.846651 c -0.133091,0.386339 -0.20904,0.798627 -0.20904,1.229334 0,2.088818 1.700631,3.789453 3.789453,3.789453 2.088821,0 3.789456,-1.700635 3.789456,-3.789453 0,-2.088821 -1.700638,-3.789457 -3.789456,-3.789457 -0.428854,0 -0.840829,0.07595 -1.227166,0.209041 L 49.778786,52 h -4.016909 v 5.706567 l -8.116857,8.116857 c -0.408521,-0.15158 -0.848438,-0.238647 -1.310567,-0.238647 -2.088822,0 -3.789453,1.700635 -3.789453,3.789456 0,2.08882 1.700631,3.789451 3.789453,3.789451 2.088821,0 3.789453,-1.700631 3.789453,-3.789451 0,-0.399281 -0.06266,-0.783628 -0.177268,-1.145935 l 5.815239,-5.8156 v 15.02279 c -1.256991,0.617402 -2.125791,1.90778 -2.125791,3.39953 0,2.088822 1.700631,3.789457 3.789453,3.789457 z"
     style="fill:#04744e;fill-opacity:1;stroke-width:0.184851"
     sodipodi:nodetypes="sscccsssscccccsssscccss" /></svg>
